:SAMPLES-PER-SECOND 30
:FULLY-SPECIFIED
:DEGREES
986
root  -8.03109 38.7199 -6.57088 -9.79645 -59.992 3.5427
RightUpLeg  6.4681 0.163991 -1.18056
RightLeg  21.8115 6.55206 2.53904
RightFoot  -20.0248 -0.55558 -5.52596
RightToes  1.45519e-009 0 -3.6325e-017
Spine  6.44858 2.67974 13.9258
Spine1  12.0525 6.32217 -9.63989
HEad  20.4686 27.1923 -4.75026
LeftShoulder1  -0.478457 4.87608 -28.6931
LeftArm  11.4985 -27.6795 -43.8766
LeftForeArm  121.889 -81.5177 -84.6987
LeftHand  -0.201489 7.63953 -7.65085
RightShoulder  -0.500691 -4.89219 29.1864
RightArm  17.683 1.46846 42.7493
RightForeArm  6.5103 19.1083 4.78152
RightHand  -0.0410799 3.54967 -0.78635
LeftUpLeg  -13.8264 0.551401 -1.44622
LeftLeg  1.82767 -20.3484 -0.196868
LeftFoot  2.20512 1.71685 -14.4043
LeftToes  -2.53752e-010 -2.07034e-011 -2.70101e-011
987
root  -7.15624 38.9555 -7.1593 -8.52829 -57.6395 3.10123
RightUpLeg  4.35286 -1.92198 -1.11534
RightLeg  20.8519 6.18256 2.05703
RightFoot  -17.8411 -0.42924 -5.4227
RightToes  1.45519e-009 0 -3.6325e-017
Spine  6.41438 2.56509 13.4691
Spine1  11.7379 5.6816 -8.2652
HEad  20.9315 26.6237 -3.78963
LeftShoulder1  -0.491669 4.89883 -29.0735
LeftArm  12.1063 -27.274 -43.9372
LeftForeArm  126.98 -81.5455 -90.0412
LeftHand  -0.199632 7.72487 -7.27625
RightShoulder  -0.511842 -4.92801 29.0813
RightArm  17.5533 3.79043 41.9322
RightForeArm  5.87064 19.7087 4.70693
RightHand  -0.0910863 3.98524 -1.38957
LeftUpLeg  -13.6746 1.25843 -1.17196
LeftLeg  -2.26056 -16.049 0.283883
LeftFoot  -1.91533 1.17562 -14.1845
LeftToes  -2.53752e-010 -2.07034e-011 -2.70101e-011
988
root  -6.35096 39.2126 -7.72511 -8.67282 -54.6851 3.72982
RightUpLeg  3.21844 -4.33549 -1.87541
RightLeg  19.4475 5.99281 1.72674
RightFoot  -15.6748 -0.296989 -5.04243
RightToes  1.45519e-009 0 -3.6325e-017
Spine  6.74354 2.14323 12.2316
Spine1  11.5753 4.92734 -7.39656
HEad  20.9984 26.1475 -3.00947
LeftShoulder1  -0.458904 4.81788 -28.755
LeftArm  12.5815 -26.8021 -43.8365
LeftForeArm  129.313 -81.5057 -93.0955
LeftHand  -0.151934 7.19203 -6.648
RightShoulder  -0.496964 -4.89143 28.9187
RightArm  15.2989 4.82445 42.0778
RightForeArm  6.29986 20.0906 4.55233
RightHand  -0.183409 4.17534 -2.50674
LeftUpLeg  -12.8496 1.53798 -1.54526
LeftLeg  -4.20667 -7.77415 -0.239318
LeftFoot  -3.4238 1.13961 -16.046
LeftToes  -2.53752e-010 -2.07034e-011 -2.70101e-011
989
root  -5.59359 39.4667 -8.23251 -8.54993 -50.8308 4.42999
RightUpLeg  2.2367 -7.12749 -2.89087
RightLeg  17.6646 5.24913 1.30915
RightFoot  -13.5185 -0.179792 -4.66983
RightToes  1.45519e-009 0 -3.6325e-017
Spine  7.0068 1.60098 11.3045
Spine1  10.8753 4.14184 -6.91322
HEad  20.6722 25.0746 -3.00664
LeftShoulder1  -0.431743 4.73603 -28.8676
LeftArm  13.7358 -27.1551 -43.5092
LeftForeArm  127.825 -81.4576 -92.8363
LeftHand  -0.101482 6.52316 -6.01226
RightShoulder  -0.445767 -4.77444 28.1578
RightArm  11.456 3.60688 42.5596
RightForeArm  7.12892 21.4337 4.3829
RightHand  -0.168961 4.31638 -2.30941
LeftUpLeg  -12.7236 1.08052 -2.39666
LeftLeg  -3.16881 -1.83481 -0.757055
LeftFoot  -2.52267 1.0146 -12.9677
LeftToes  -2.53752e-010 -2.07034e-011 -2.70101e-011
990
root  -4.87848 39.6689 -8.68552 -8.58566 -47.3967 5.26811
RightUpLeg  1.38295 -9.21215 -4.1185
RightLeg  16.1047 4.21001 1.14256
RightFoot  -11.687 -0.0922779 -4.30955
RightToes  1.45519e-009 0 -3.6325e-017
Spine  7.26187 1.48975 11.1416
Spine1  10.3716 4.1319 -7.26181
HEad  19.8139 23.7648 -3.74309
LeftShoulder1  -0.396971 4.64838 -28.5114
LeftArm  15.493 -28.0134 -44.171
LeftForeArm  125.747 -81.4575 -90.9875
LeftHand  -0.09168 6.47663 -5.29261
RightShoulder  -0.500686 -4.92598 28.347
RightArm  8.79116 2.00888 42.0953
RightForeArm  6.76234 23.2122 4.61103
RightHand  -0.196653 3.77824 -2.75673
LeftUpLeg  -12.4096 0.853281 -3.10677
LeftLeg  -0.772545 2.03331 -1.03474
LeftFoot  -1.7606 0.848186 -9.94551
LeftToes  -2.53752e-010 -2.07034e-011 -2.70101e-011
991
root  -4.20442 39.7847 -9.09039 -8.18369 -44.4679 5.61753
RightUpLeg  0.32375 -10.2506 -4.92826
RightLeg  15.0485 2.57245 1.03136
RightFoot  -10.3154 -0.0358666 -3.75611
RightToes  1.45519e-009 0 -3.6325e-017
Spine  7.55481 1.60196 11.9097
Spine1  9.55614 4.51314 -8.06518
HEad  19.7309 25.0289 -4.75387
LeftShoulder1  -0.326237 4.44457 -28.509
LeftArm  17.3301 -28.8008 -44.4327
LeftForeArm  127.153 -81.4662 -92.0722
LeftHand  -0.0498834 5.72908 -4.56842
RightShoulder  -0.523915 -4.97862 28.6926
RightArm  7.98011 0.242158 41.2254
RightForeArm  6.06418 24.5763 4.94456
RightHand  -0.196379 4.64386 -2.5506
LeftUpLeg  -12.0895 1.31592 -3.20801
LeftLeg  2.43164 2.81163 -1.05618
LeftFoot  -2.61646 0.693629 -8.86352
LeftToes  -2.53752e-010 -2.07034e-011 -2.70101e-011
992
root  -3.56816 39.8407 -9.4525 -7.69186 -41.598 5.64406
RightUpLeg  -0.643149 -11.1065 -5.62128
RightLeg  14.4684 0.670919 1.06252
RightFoot  -9.23074 0.00196952 -3.47159
RightToes  1.45519e-009 0 -3.6325e-017
Spine  7.88426 1.68738 12.6759
Spine1  8.73034 4.77527 -8.59242
HEad  20.1252 27.4925 -6.20015
LeftShoulder1  -0.318162 4.42157 -28.4968
LeftArm  18.5723 -29.1384 -44.7547
LeftForeArm  129.241 -81.4755 -93.6517
LeftHand  -0.000928159 4.57089 -3.90901
RightShoulder  -0.503304 -4.90914 28.9467
RightArm  9.71438 -0.920215 40.3987
RightForeArm  4.90969 25.0785 5.11486
RightHand  -0.285746 5.11936 -3.46438
LeftUpLeg  -11.3461 2.34643 -3.02133
LeftLeg  5.67232 0.491179 -0.840671
LeftFoot  -3.91551 0.55351 -8.18876
LeftToes  -2.53752e-010 -2.07034e-011 -2.70101e-011
993
root  -2.97936 39.8598 -9.76845 -7.05484 -38.7398 5.37855
RightUpLeg  -1.50743 -11.7314 -6.13179
RightLeg  14.1338 -1.45848 1.10656
RightFoot  -8.30616 0.0317303 -3.32464
RightToes  1.45519e-009 0 -3.6325e-017
Spine  7.44882 1.80462 13.0806
Spine1  8.81402 4.89091 -8.4309
HEad  20.2507 26.2417 -6.64111
LeftShoulder1  -0.326652 4.44266 -28.632
LeftArm  19.2086 -29.4245 -44.7494
LeftForeArm  130.541 -81.4716 -94.7639
LeftHand  -0.00944804 4.71478 -3.25257
RightShoulder  -0.483515 -4.85448 28.8975
RightArm  12.8847 -0.885843 40.4253
RightForeArm  4.35869 23.7302 4.85934
RightHand  -0.27365 5.47131 -3.23452
LeftUpLeg  -10.195 3.45556 -2.24758
LeftLeg  8.63067 -1.77026 -0.660703
LeftFoot  -5.08953 0.48097 -8.223
LeftToes  -2.53752e-010 -2.07034e-011 -2.70101e-011
994
root  -2.39911 39.8459 -10.0509 -6.35107 -35.8215 5.14814
RightUpLeg  -2.53222 -12.2068 -6.63128
RightLeg  14.1058 -3.78115 0.899447
RightFoot  -7.69905 0.0380434 -2.82621
RightToes  1.45519e-009 0 -3.6325e-017
Spine  6.74789 1.96366 13.2645
Spine1  8.89601 4.97822 -8.1595
HEad  20.8628 23.8428 -6.18303
LeftShoulder1  -0.305816 4.37806 -28.8196
LeftArm  19.8484 -29.7066 -44.6807
LeftForeArm  131.932 -81.4817 -95.6082
LeftHand  -0.0313549 5.34632 -3.16826
RightShoulder  -0.449482 -4.77262 28.4943
RightArm  17.1661 -0.587513 40.9466
RightForeArm  3.4949 21.5391 4.68042
RightHand  -0.187554 5.12788 -2.37609
LeftUpLeg  -8.96835 4.40084 -1.11333
LeftLeg  11.1146 -3.05325 -0.635771
LeftFoot  -5.45689 0.383419 -6.82533
LeftToes  -2.53752e-010 -2.07034e-011 -2.70101e-011
995
root  -1.78383 39.822 -10.3249 -5.64804 -32.5794 5.09549
RightUpLeg  -3.89817 -13.2071 -7.49464
RightLeg  14.7393 -5.79184 0.790187
RightFoot  -6.99389 0.0477395 -2.51152
RightToes  1.45519e-009 0 -3.6325e-017
Spine  5.99596 1.84961 13.2821
Spine1  8.99635 4.88223 -8.3275
HEad  21.1533 22.7142 -5.44491
LeftShoulder1  -0.345221 4.49454 -28.6684
LeftArm  20.1539 -30.1331 -44.4934
LeftForeArm  134.933 -81.4727 -97.8811
LeftHand  -0.0200333 5.02796 -3.56738
RightShoulder  -0.482028 -4.85469 28.7807
RightArm  19.9205 0.00685631 41.5573
RightForeArm  4.20171 19.4124 4.93647
RightHand  -0.150628 4.51282 -2.05324
LeftUpLeg  -7.74304 5.79027 0.153014
LeftLeg  12.8989 -3.1961 -0.628166
LeftFoot  -5.58677 0.35332 -6.3592
LeftToes  -2.53752e-010 -2.07034e-011 -2.70101e-011
996
root  -1.23391 39.8368 -10.5846 -5.18533 -28.8485 4.76037
RightUpLeg  -4.09607 -13.8028 -8.20207
RightLeg  14.4583 -8.64967 0.523706
RightFoot  -6.08468 0.0486847 -1.95418
RightToes  1.45519e-009 0 -3.6325e-017
Spine  5.39032 1.7251 12.496
Spine1  9.27758 4.5048 -7.46257
HEad  21.6814 22.9874 -5.31852
LeftShoulder1  -0.303994 4.37813 -28.5799
LeftArm  20.1985 -30.52 -44.2733
LeftForeArm  135.398 -81.4708 -98.2145
LeftHand  -0.0175187 5.00398 -4.24857
RightShoulder  -0.532948 -4.99215 28.9733
RightArm  21.1277 -0.141979 41.8454
RightForeArm  5.22729 18.3645 5.25542
RightHand  -0.11434 4.40233 -1.63603
LeftUpLeg  -5.94115 7.09531 1.9008
LeftLeg  13.5836 -1.621 -0.192935
LeftFoot  -5.27506 0.351869 -6.0545
LeftToes  -2.53752e-010 -2.07034e-011 -2.70101e-011
997
root  -0.668438 39.854 -10.8097 -5.00192 -24.8269 4.7099
RightUpLeg  -3.94049 -14.8077 -9.43423
RightLeg  14.1906 -11.3673 0.380783
RightFoot  -5.21041 0.0418252 -1.4436
RightToes  1.45519e-009 0 -3.6325e-017
Spine  5.24911 1.43407 11.4103
Spine1  8.99944 3.94594 -6.65007
HEad  21.825 22.4035 -5.03955
LeftShoulder1  -0.362384 4.53332 -29.0401
LeftArm  20.6189 -30.8992 -43.5425
LeftForeArm  136.455 -81.4365 -99.4419
LeftHand  -0.0306394 5.33545 -4.44445
RightShoulder  -0.480931 -4.84959 28.8306
RightArm  21.2554 -1.47543 42.421
RightForeArm  6.25056 18.3375 5.23785
RightHand  -0.103188 4.02657 -1.54901
LeftUpLeg  -3.69502 9.34607 3.59035
LeftLeg  12.5633 0.833893 0.317612
LeftFoot  -4.56799 0.345149 -5.35943
LeftToes  -2.53752e-010 -2.07034e-011 -2.70101e-011
998
root  -0.0993954 39.8908 -11.0034 -4.7294 -20.9577 4.6404
RightUpLeg  -3.60483 -15.7023 -10.6318
RightLeg  13.6229 -14.0036 0.210453
RightFoot  -4.15714 0.0219483 -0.797516
RightToes  1.45519e-009 0 -3.6325e-017
Spine  4.94799 1.36281 10.6899
Spine1  8.89488 3.78182 -6.57507
HEad  21.7879 21.9041 -4.70529
LeftShoulder1  -0.28653 4.32951 -28.523
LeftArm  20.9588 -30.9553 -43.9444
LeftForeArm  136.968 -81.4201 -100.012
LeftHand  -0.0712993 6.26659 -4.27829
RightShoulder  -0.57208 -5.08002 29.4948
RightArm  21.6138 -2.83978 42.2905
RightForeArm  4.99193 19.0052 5.11707
RightHand  -0.173094 3.60387 -2.48282
LeftUpLeg  -1.4161 11.731 5.52983
LeftLeg  10.483 4.59901 0.47646
LeftFoot  -4.00469 0.378583 -5.52154
LeftToes  -2.53752e-010 -2.07034e-011 -2.70101e-011
